<?xml version="1.0" encoding="UTF-8"?>
<svg xmlns="http://www.w3.org/2000/svg" xmlns:xlink="http://www.w3.org/1999/xlink" width="108px" height="96px" viewBox="0 0 107 96" version="1.1">
<g id="surface1">
<!--<path style=" stroke:none;fill-rule:nonzero;fill:rgb(100%,100%,100%);fill-opacity:1;" d="M 0.0117188 0 L 106.988281 0 L 106.988281 96 L 0.0117188 96 Z M 0.0117188 0 "/>-->
<path style=" stroke:none;fill-rule:nonzero;fill:rgb(85.490196%,14.117647%,10.588235%);fill-opacity:1;" d="M 20.601562 37.96875 C 20.671875 37.875 20.761719 37.796875 20.863281 37.738281 C 21.085938 37.617188 21.417969 37.566406 21.519531 38.300781 C 21.652344 39.308594 22.644531 39.199219 22.855469 39.171875 C 22.890625 39.167969 22.921875 39.167969 22.949219 39.160156 L 31.703125 38.75 L 31.742188 38.75 C 31.871094 38.738281 32.855469 38.683594 31.953125 39.875 C 30.992188 41.148438 25.785156 47.515625 24.082031 50.550781 C 22.378906 53.585938 22.226562 54.710938 24.042969 55.160156 C 25.847656 55.601562 28.457031 55.390625 32.410156 54.613281 C 32.46875 54.601562 32.523438 54.585938 32.574219 54.5625 C 32.679688 54.519531 32.847656 54.492188 32.511719 54.96875 C 32.148438 55.492188 30.066406 58.265625 29.320312 59.261719 C 29.152344 59.484375 28.894531 59.621094 28.617188 59.632812 C 27.058594 59.695312 21.796875 59.867188 20.660156 59.613281 C 19.328125 59.316406 16.644531 59.058594 17.667969 56 C 17.679688 55.960938 17.695312 55.921875 17.714844 55.890625 C 17.910156 55.492188 19.128906 53.085938 21.457031 50.460938 C 21.46875 50.449219 21.480469 50.433594 21.492188 50.417969 L 26.503906 43.992188 C 26.535156 43.960938 26.5625 43.925781 26.59375 43.898438 C 26.679688 43.820312 26.828125 43.570312 25.296875 43.695312 C 25.28125 43.695312 25.257812 43.695312 25.242188 43.703125 C 24.90625 43.746094 21.574219 44.195312 18.761719 43.742188 C 18.746094 43.742188 18.722656 43.734375 18.707031 43.734375 C 18.488281 43.710938 16.996094 43.527344 17.445312 42.160156 C 17.5 41.980469 20.152344 38.546875 20.601562 37.96875 Z M 20.601562 37.96875 "/>
<path style=" stroke:none;fill-rule:nonzero;fill:rgb(85.490196%,14.117647%,10.588235%);fill-opacity:1;" d="M 34.355469 41.648438 L 37.0625 39.582031 C 37.203125 39.476562 37.410156 39.503906 37.515625 39.644531 C 37.527344 39.65625 37.539062 39.671875 37.542969 39.6875 C 37.828125 40.234375 38.46875 41.246094 39.335938 41.359375 C 39.386719 41.363281 39.433594 41.378906 39.476562 41.410156 C 39.554688 41.464844 39.625 41.582031 39.386719 41.773438 C 39.042969 42.050781 37.390625 43.453125 37.152344 43.660156 C 37.128906 43.679688 37.109375 43.695312 37.085938 43.707031 C 36.890625 43.800781 36 44.179688 35.242188 43.695312 C 35.230469 43.691406 35.226562 43.683594 35.214844 43.679688 C 35.121094 43.605469 34.535156 43.117188 34.238281 41.992188 C 34.207031 41.871094 34.25 41.734375 34.355469 41.648438 Z M 34.355469 41.648438 "/>
<path style=" stroke:none;fill-rule:nonzero;fill:rgb(85.490196%,14.117647%,10.588235%);fill-opacity:1;" d="M 33.078125 48.617188 C 32.980469 48.667969 32.855469 48.628906 32.808594 48.523438 C 32.808594 48.515625 32.800781 48.515625 32.800781 48.511719 C 32.722656 48.320312 32.71875 48.003906 33.226562 47.65625 C 34.042969 47.09375 37.386719 44.773438 37.386719 44.773438 C 37.386719 44.773438 38.613281 43.949219 38.835938 45.746094 C 39.046875 47.433594 39.320312 55.90625 39.355469 56.953125 C 39.355469 57.019531 39.324219 57.082031 39.269531 57.121094 L 35.78125 59.800781 C 35.691406 59.867188 35.566406 59.851562 35.492188 59.761719 C 35.464844 59.726562 35.449219 59.683594 35.449219 59.636719 L 35.449219 50.769531 C 35.449219 50.769531 35.382812 47.453125 33.078125 48.617188 Z M 33.078125 48.617188 "/>
<path style=" stroke:none;fill-rule:nonzero;fill:rgb(85.490196%,14.117647%,10.588235%);fill-opacity:1;" d="M 40.351562 48.964844 C 40.304688 48.996094 40.246094 48.988281 40.207031 48.949219 C 40.089844 48.820312 39.945312 48.488281 40.613281 47.925781 C 41.476562 47.203125 44.21875 45.105469 44.390625 44.976562 C 44.394531 44.972656 44.402344 44.964844 44.414062 44.964844 C 44.550781 44.898438 45.898438 44.332031 46.144531 46.996094 C 46.40625 49.796875 46.519531 49.539062 46.519531 51.886719 C 46.519531 51.894531 46.519531 51.90625 46.519531 51.910156 C 46.535156 51.984375 46.636719 52.347656 47.074219 51.636719 C 47.5625 50.847656 51.828125 45.402344 52.871094 44.863281 C 52.871094 44.863281 54.503906 43.691406 55.25 47.101562 C 55.945312 50.308594 56.714844 56.304688 56.804688 57.003906 C 56.808594 57.042969 56.792969 57.085938 56.757812 57.109375 L 53.488281 59.613281 C 53.4375 59.65625 53.367188 59.644531 53.328125 59.59375 C 53.316406 59.574219 53.304688 59.554688 53.304688 59.53125 C 53.234375 58.507812 52.886719 54.097656 52.136719 51.789062 L 52.136719 51.78125 C 52.113281 51.699219 51.472656 49.335938 49.570312 50.738281 C 49.570312 50.738281 47.007812 52.472656 44.066406 59.675781 C 44.050781 59.722656 44.007812 59.75 43.960938 59.75 L 43.292969 59.75 C 43.230469 59.75 43.175781 59.699219 43.175781 59.632812 C 43.175781 58.6875 43.179688 52.316406 42.664062 50.371094 C 42.664062 50.367188 42.664062 50.367188 42.664062 50.359375 C 42.636719 50.226562 42.238281 47.832031 40.351562 48.964844 Z M 40.351562 48.964844 "/>
<path style=" stroke:none;fill-rule:nonzero;fill:rgb(85.490196%,14.117647%,10.588235%);fill-opacity:1;" d="M 60.972656 49.101562 C 60.03125 49.925781 58.769531 51.085938 58.386719 51.652344 C 58.347656 51.707031 58.324219 51.769531 58.320312 51.832031 C 58.242188 52.410156 57.855469 55.613281 59 57.210938 C 60.070312 58.703125 61.277344 59.363281 61.617188 59.523438 C 61.671875 59.554688 61.742188 59.570312 61.808594 59.570312 L 64.230469 59.570312 C 64.265625 59.570312 64.296875 59.566406 64.332031 59.558594 C 64.683594 59.472656 66.636719 58.894531 68.660156 56.011719 C 70.554688 53.304688 70.570312 52.574219 70.53125 52.417969 C 70.519531 52.378906 70.515625 52.34375 70.515625 52.304688 L 70.539062 49.207031 C 70.539062 49.167969 70.53125 49.136719 70.527344 49.101562 C 70.414062 48.667969 69.601562 45.824219 66.695312 44.925781 C 66.695312 44.925781 64.480469 44.039062 61.160156 46.773438 C 60.976562 46.925781 60.949219 47.203125 61.09375 47.386719 C 61.175781 47.496094 61.304688 47.550781 61.445312 47.550781 L 61.472656 47.550781 C 61.484375 47.550781 61.5 47.550781 61.511719 47.542969 C 61.800781 47.503906 65.652344 47.101562 67.304688 52.148438 C 67.316406 52.1875 67.324219 52.226562 67.328125 52.265625 L 67.46875 55.035156 C 67.472656 55.089844 67.460938 55.148438 67.445312 55.199219 C 67.351562 55.46875 67.015625 56.3125 66.398438 56.503906 C 66.398438 56.503906 63.78125 57.953125 61.589844 52.921875 C 61.574219 52.890625 61.5625 52.847656 61.554688 52.808594 C 61.417969 51.714844 61.457031 50.601562 61.679688 49.515625 C 61.722656 49.28125 61.574219 49.050781 61.339844 49.003906 C 61.207031 48.984375 61.070312 49.015625 60.972656 49.101562 Z M 60.972656 49.101562 "/>
<path style=" stroke:none;fill-rule:nonzero;fill:rgb(85.490196%,14.117647%,10.588235%);fill-opacity:1;" d="M 77.871094 57.253906 L 75.179688 59.644531 C 75.09375 59.714844 74.980469 59.746094 74.871094 59.710938 C 74.367188 59.554688 72.878906 59.046875 72.28125 58.3125 C 72.191406 58.203125 72.148438 58.0625 72.148438 57.921875 L 72.148438 57.722656 C 72.148438 57.421875 72.277344 57.136719 72.5 56.945312 L 77.386719 52.679688 L 75.339844 49.195312 C 75.339844 49.195312 74.265625 48.144531 73.78125 48.035156 C 73.390625 47.945312 72.308594 47.855469 71.898438 47.820312 C 71.746094 47.808594 71.636719 47.679688 71.648438 47.535156 C 71.648438 47.503906 71.652344 47.484375 71.664062 47.460938 C 71.703125 47.363281 71.785156 47.257812 71.964844 47.140625 L 74.304688 45.566406 L 83.480469 58.605469 C 83.480469 58.605469 82.476562 60.023438 81.625 58.867188 C 80.773438 57.710938 77.949219 53.511719 77.949219 53.511719 L 76.34375 54.871094 C 76.054688 55.113281 75.886719 55.472656 75.886719 55.851562 C 75.886719 56.382812 76.25 57.042969 77.871094 57.253906 Z M 77.871094 57.253906 "/>
<path style=" stroke:none;fill-rule:nonzero;fill:rgb(85.490196%,14.117647%,10.588235%);fill-opacity:1;" d="M 80.457031 46.503906 L 83.113281 44.144531 C 83.21875 44.050781 83.363281 44.023438 83.496094 44.0625 C 84.015625 44.222656 85.3125 44.679688 85.9375 45.332031 C 86.089844 45.492188 86.175781 45.707031 86.171875 45.933594 L 86.171875 46.101562 C 86.171875 46.359375 86.058594 46.601562 85.871094 46.769531 L 80.933594 51.074219 L 82.875 54.378906 C 82.945312 54.5 83.035156 54.613281 83.140625 54.710938 C 83.457031 55 84.171875 55.636719 84.539062 55.722656 C 84.917969 55.8125 85.972656 55.902344 86.398438 55.933594 C 86.554688 55.945312 86.671875 56.085938 86.664062 56.242188 C 86.65625 56.289062 86.644531 56.332031 86.617188 56.378906 C 86.550781 56.480469 86.460938 56.5625 86.355469 56.625 L 84.015625 58.199219 L 74.839844 45.164062 C 74.839844 45.164062 75.84375 43.742188 76.695312 44.898438 C 77.546875 46.054688 80.371094 50.253906 80.371094 50.253906 L 81.976562 48.894531 C 82.265625 48.652344 82.433594 48.292969 82.433594 47.914062 C 82.4375 47.375 82.078125 46.71875 80.457031 46.503906 Z M 80.457031 46.503906 "/>
</g>
</svg>
